<svg xmlns="http://www.w3.org/2000/svg" xmlns:xlink="http://www.w3.org/1999/xlink" id="Layer_1" x="0px" y="0px" viewBox="0 0 76.9 76.9" style="enable-background:new 0 0 76.9 76.9;" xml:space="preserve">
<style type="text/css">
	.st0{opacity:0.84;}
	.st1{fill:#FFFFFF;}
	.st2{fill:#EB6B16;}
	.st3{enable-background:new    ;}
</style>
<g transform="translate(-1804 -16057.155)">
	<g transform="translate(866.5 14989.155)" class="st0">
		<g transform="translate(1014.449 1144.949) rotate(180)">
			<path class="st1" d="M38.5,75.4c-5,0-9.8-1-14.4-2.9c-4.4-1.9-8.4-4.5-11.8-7.9c-3.4-3.4-6.1-7.4-7.9-11.8     c-1.9-4.6-2.9-9.4-2.9-14.4s1-9.8,2.9-14.4c1.9-4.4,4.5-8.4,7.9-11.8c3.4-3.4,7.4-6.1,11.8-7.9c4.6-1.9,9.4-2.9,14.4-2.9     s9.8,1,14.4,2.9c4.4,1.9,8.4,4.5,11.8,7.9c3.4,3.4,6.1,7.4,7.9,11.8c1.9,4.6,2.9,9.4,2.9,14.4s-1,9.8-2.9,14.4     c-1.9,4.4-4.5,8.4-7.9,11.8c-3.4,3.4-7.4,6.1-11.8,7.9C48.3,74.5,43.5,75.4,38.5,75.4z"></path>
			<path class="st2" d="M38.5,3C33.7,3,29,3.9,24.7,5.8c-4.2,1.8-8,4.3-11.3,7.6c-3.3,3.3-5.8,7.1-7.6,11.3C3.9,29,3,33.7,3,38.5     s0.9,9.4,2.8,13.8c1.8,4.2,4.3,8,7.6,11.3c3.3,3.3,7.1,5.8,11.3,7.6c4.4,1.8,9,2.8,13.8,2.8s9.4-0.9,13.8-2.8     c4.2-1.8,8-4.3,11.3-7.6c3.3-3.3,5.8-7.1,7.6-11.3c1.8-4.4,2.8-9,2.8-13.8S73,29,71.2,24.7c-1.8-4.2-4.3-8-7.6-11.3     c-3.3-3.3-7.1-5.8-11.3-7.6C47.9,3.9,43.3,3,38.5,3 M38.5,0c21.2,0,38.5,17.2,38.5,38.5S59.7,76.9,38.5,76.9S0,59.7,0,38.5     S17.2,0,38.5,0z"></path>
		</g>
		<path class="st2" d="M966.5,1100.7l9.4-9.4l9.5,9.4l2.9-2.9l-12.3-12.4l-12.4,12.4L966.5,1100.7z"></path>
	</g>
	<g class="st3">
		<path class="st2" d="M1828.7,16101.9h-3.6v-2.1h9.8v2.1h-3.6v9.1h-2.6V16101.9z"></path>
		<path class="st2" d="M1838.3,16110.4c-0.9-0.5-1.7-1.2-2.2-2.1s-0.8-1.9-0.8-3s0.3-2.1,0.8-3s1.3-1.6,2.2-2.1    c0.9-0.5,2-0.8,3.1-0.8s2.2,0.3,3.1,0.8c0.9,0.5,1.7,1.2,2.2,2.1c0.5,0.9,0.8,1.9,0.8,3s-0.3,2.1-0.8,3c-0.5,0.9-1.3,1.6-2.2,2.1    c-0.9,0.5-2,0.8-3.1,0.8S1839.3,16110.9,1838.3,16110.4z M1843.3,16108.5c0.5-0.3,1-0.7,1.3-1.3c0.3-0.5,0.5-1.2,0.5-1.9    s-0.2-1.3-0.5-1.9c-0.3-0.5-0.7-1-1.3-1.3c-0.5-0.3-1.1-0.5-1.8-0.5c-0.7,0-1.3,0.2-1.8,0.5c-0.5,0.3-1,0.7-1.3,1.3    c-0.3,0.5-0.5,1.2-0.5,1.9s0.2,1.3,0.5,1.9c0.3,0.5,0.7,1,1.3,1.3c0.5,0.3,1.1,0.5,1.8,0.5    C1842.1,16109,1842.7,16108.8,1843.3,16108.5z"></path>
		<path class="st2" d="M1857,16100.3c0.7,0.3,1.3,0.8,1.7,1.4c0.4,0.6,0.6,1.3,0.6,2.2c0,0.8-0.2,1.5-0.6,2.2    c-0.4,0.6-1,1.1-1.7,1.4s-1.6,0.5-2.6,0.5h-2.3v3.1h-2.6v-11.2h4.8C1855.4,16099.8,1856.3,16100,1857,16100.3z M1856,16105.3    c0.4-0.3,0.6-0.8,0.6-1.4c0-0.6-0.2-1.1-0.6-1.4s-1-0.5-1.8-0.5h-2.1v3.9h2.1C1855,16105.8,1855.6,16105.6,1856,16105.3z"></path>
	</g>
</g>
</svg>