<?xml version="1.0" encoding="utf-8"?>
<svg viewBox="0 0 500 500" xmlns="http://www.w3.org/2000/svg">
  <path class="st0" d="M 74.757 67.642 C 63.041 54.79 38.6 54.411 24.362 63.358 C 10.755 71.924 5.213 91.453 16.803 103.801 C 31.166 119.044 59.01 113.626 70.349 133.154 C 78.538 147.266 65.686 159.866 51.324 160.116 C 39.985 160.368 26.127 156.589 18.44 148.524 C 13.276 143.108 4.834 151.171 10 156.589 C 21.464 168.558 42.756 173.849 59.261 170.699 C 74.632 167.802 87.104 153.439 84.586 138.067 C 81.434 118.917 62.159 109.595 44.772 104.555 C 32.173 100.901 14.031 92.587 26.127 77.343 C 34.694 66.633 56.868 65.248 66.318 75.579 C 71.355 81.248 79.797 73.185 74.757 67.642 Z M 158.413 125.846 L 158.413 166.037 C 158.413 173.597 146.445 173.597 146.445 166.037 L 146.445 126.729 C 146.067 121.942 143.294 117.659 139.138 115.265 C 130.697 111.611 115.2 113.248 106.129 124.84 L 106.129 166.037 C 106.129 173.597 94.161 173.597 94.161 166.037 L 94.161 62.979 C 94.161 55.419 106.129 55.419 106.129 62.979 L 106.129 109.342 C 120.744 99.641 139.263 100.649 148.082 106.697 C 154.761 110.603 158.667 118.036 158.413 125.846 Z M 357.978 131.14 C 358.105 130.635 358.232 130.256 358.357 129.88 C 361.255 120.43 370.955 115.011 380.782 114.761 C 392.121 114.507 398.421 122.069 400.437 131.14 L 357.978 131.14 Z M 412.908 136.935 C 412.658 121.186 404.342 106.824 387.082 103.672 C 372.215 100.901 354.83 108.588 348.53 122.069 C 341.978 136.052 344.75 155.329 357.726 165.156 C 371.713 175.739 393.633 172.464 407.996 164.652 C 414.672 160.999 408.625 151.045 401.948 154.699 C 392.877 159.612 380.909 162.133 370.703 158.731 C 363.018 156.21 358.735 149.912 357.474 142.729 L 406.989 142.729 C 410.264 142.729 412.908 140.21 412.908 136.935 Z M 437.224 131.14 C 437.35 130.761 437.478 130.256 437.603 129.88 C 440.501 120.43 450.202 115.011 460.029 114.761 C 471.367 114.507 477.667 122.069 479.683 131.14 L 437.224 131.14 Z M 492.281 136.809 C 492.03 121.059 483.714 106.697 466.454 103.547 C 451.588 100.776 434.201 108.461 427.903 121.942 C 421.351 135.927 424.122 155.202 437.099 165.03 C 451.084 175.613 473.004 172.337 487.368 164.526 C 494.045 160.872 487.999 150.919 481.321 154.572 C 472.25 159.612 460.281 162.005 450.076 158.604 C 442.39 156.085 438.107 149.785 436.847 142.604 L 486.36 142.604 C 489.509 142.604 492.155 140.085 492.281 136.809 Z M 207.801 115.642 C 195.328 115.642 185.123 125.469 185.123 137.564 C 185.123 149.658 195.202 159.487 207.801 159.487 C 220.399 159.487 230.353 149.658 230.353 137.564 C 230.353 125.469 220.147 115.642 207.801 115.642 Z M 207.801 171.833 C 188.273 171.833 172.398 156.464 172.398 137.438 C 172.398 118.413 188.273 103.043 207.801 103.043 C 227.33 103.043 243.204 118.413 243.204 137.438 C 243.204 156.464 227.33 171.833 207.801 171.833 Z M 295.615 159.487 C 283.141 159.487 273.062 149.658 273.062 137.564 C 273.189 126.604 281.253 117.532 292.088 115.894 L 292.338 115.894 C 293.472 115.769 294.605 115.642 295.74 115.642 C 304.559 115.642 312.623 120.681 316.402 128.746 C 316.402 128.746 316.402 128.746 316.402 128.871 C 317.662 131.644 318.292 134.54 318.292 137.564 C 318.166 149.658 308.086 159.487 295.615 159.487 Z M 295.615 103.169 C 285.534 103.169 275.96 107.328 269.158 114.636 L 269.158 106.445 C 269.158 99.012 257.187 99.012 257.187 106.445 L 257.187 203.582 C 257.187 211.015 269.158 211.015 269.158 203.582 L 269.158 160.368 C 275.96 167.802 285.534 171.959 295.615 171.833 C 315.144 171.833 331.017 156.464 331.017 137.438 C 331.017 118.413 315.144 103.169 295.615 103.169 Z" style="clip-rule: evenodd; fill: rgb(237, 76, 47); fill-rule: evenodd;"/>
  <path class="st0" d="M 235.771 280.435 C 258.448 280.435 276.968 298.829 276.968 321.632 C 276.968 344.436 258.573 362.831 235.771 362.831 C 212.966 362.831 194.572 344.436 194.572 321.632 C 194.572 298.829 213.093 280.435 235.771 280.435 Z M 281.882 251.71 L 309.725 251.71 L 309.725 391.43 L 281.882 391.43 L 281.882 375.681 C 252.022 401.13 207.045 397.478 181.596 367.618 C 156.146 337.761 159.8 292.781 189.658 267.332 C 216.242 244.78 255.173 244.78 281.756 267.332 L 281.756 251.71 L 281.882 251.71 Z M 39.985 302.987 L 39.985 227.52 L 82.821 227.52 C 106.885 227.52 126.414 244.403 126.414 265.317 C 126.414 286.231 106.885 303.112 82.821 303.112 L 39.985 302.987 Z M 8.361 392.689 L 39.985 392.689 L 39.985 334.736 L 82.821 334.736 C 127.168 334.736 163.075 303.616 163.075 265.317 C 163.075 227.016 127.043 195.896 82.821 195.896 L 8.236 195.896 L 8.361 392.689 Z M 385.319 452.533 L 347.522 452.533 L 387.963 376.06 L 321.442 250.449 L 362.513 250.449 L 408.499 337.255 L 454.486 250.449 L 492.281 250.449 L 385.319 452.533 Z" style="clip-rule: evenodd; fill: rgb(237, 76, 47); fill-rule: evenodd;"/>
</svg>